:version 1.10
:name ASF
:units
  mass 1
  length 1
  angle deg
:documentation
  ASF file generated by Kaydara
:root
  axis xyz
  order  tx ty tz rx ry rz
  position 0 0 0
  orientation 0 0 0
:bonedata
  begin
    id 1
    name RightUpLegDummy
    direction -0.65628 -0.754516 0.00165102
    length 4.76918
    axis 0 0 0 xyz
  end
  begin
    id 2
    name RightUpLeg
    direction -0.145584 -0.923362 0.355256
    length 17.9961
    axis -24.7611 -13.1006 1.78531 xyz
    dof rx ry rz
  end
  begin
    id 3
    name RightLeg
    direction 0.263379 0.172355 -0.949171
    length 13.3386
    axis 89.6202 -21.1929 12.3855 xyz
    dof rx ry rz
  end
  begin
    id 4
    name RightFoot
    direction 0.224283 -0.968777 -0.105675
    length 5.86697
    axis 56.995 -39.6905 17.3365 xyz
    dof rx ry rz
  end
  begin
    id 5
    name RightToes
    direction -0.0806345 -0.9037 0.420506
    length 4.75197
    axis 146.825 -39.7828 17.6019 xyz
    dof rx ry rz
  end
  begin
    id 6
    name SpineDummy
    direction -3.39852e-014 1 9.33296e-014
    length 8.13779
    axis 0 0 0 xyz
  end
  begin
    id 7
    name Spine
    direction -0.156609 0.733703 0.661176
    length 7.14978
    axis 41.2365 5.68757 17.0844 xyz
    dof rx ry rz
  end
  begin
    id 8
    name Spine1
    direction 0 0 0
    length 0
    axis 42.8809 47.8308 -3.36039 xyz
    dof rx ry rz
  end
  begin
    id 9
    name HEadDummy
    direction 0.546431 0.701947 0.456819
    length 3.55512
    axis 42.8809 47.8308 -3.36039 xyz
  end
  begin
    id 10
    name HEad
    direction 0.23444 0.828559 0.508457
    length 7.35827
    axis 51.1864 49.2662 27.4903 xyz
    dof rx ry rz
  end
  begin
    id 11
    name LeftShoulder1Dummy
    direction 0.431183 0.475873 -0.766568
    length 2.49352
    axis 42.8809 47.8308 -3.36039 xyz
  end
  begin
    id 12
    name LeftShoulder1
    direction 0.268187 -0.383402 -0.883786
    length 4.48604
    axis -119.517 0.106469 35.1736 xyz
    dof rx ry rz
  end
  begin
    id 13
    name LeftArm
    direction 0.380567 -0.703221 -0.600541
    length 10.1142
    axis -5.41825 36.2925 7.8293 xyz
    dof rx ry rz
  end
  begin
    id 14
    name LeftForeArm
    direction 0.541071 -0.732356 -0.413396
    length 9.39839
    axis 4.65387 33.7604 7.81644 xyz
    dof rx ry rz
  end
  begin
    id 15
    name LeftHand
    direction 0.847511 -0.389379 -0.360707
    length 3.66142
    axis 7.65593 21.1436 -24.6758 xyz
    dof rx ry rz
  end
  begin
    id 16
    name RightShoulderDummy
    direction -0.692546 0.541855 0.476208
    length 2.49352
    axis 42.8809 47.8308 -3.36039 xyz
  end
  begin
    id 17
    name RightShoulder
    direction -0.870808 -0.316653 0.376065
    length 4.48602
    axis 141.571 51.133 -100.254 xyz
    dof rx ry rz
  end
  begin
    id 18
    name RightArm
    direction 0.366897 -0.87275 0.322015
    length 10.1142
    axis 92.3258 71.2036 138.917 xyz
    dof rx ry rz
  end
  begin
    id 19
    name RightForeArm
    direction 0.702487 -0.694568 0.155197
    length 9.39835
    axis 153.863 41.5092 -176.604 xyz
    dof rx ry rz
  end
  begin
    id 20
    name RightHand
    direction 0.79502 -0.601276 0.0800636
    length 3.66142
    axis 154.247 4.59222 142.9 xyz
    dof rx ry rz
  end
  begin
    id 21
    name LeftUpLegDummy
    direction 0.65628 -0.754516 0.00165102
    length 4.76919
    axis 0 0 0 xyz
  end
  begin
    id 22
    name LeftUpLeg
    direction -0.1277 -0.689368 0.713067
    length 17.9961
    axis -48.3385 -17.8675 0.791927 xyz
    dof rx ry rz
  end
  begin
    id 23
    name LeftLeg
    direction 0.109849 -0.991246 -0.0732378
    length 13.3386
    axis -2.05791 -7.30784 1.72042 xyz
    dof rx ry rz
  end
  begin
    id 24
    name LeftFoot
    direction 0.0448355 -0.272614 0.961078
    length 5.86697
    axis -18.7733 -7.89606 10.2113 xyz
    dof rx ry rz
  end
  begin
    id 25
    name LeftToes
    direction -0.18506 0.293668 0.937823
    length 4.75197
    axis 71.2267 -7.89606 10.2113 xyz
    dof rx ry rz
  end
:hierarchy
  begin
    root RightUpLegDummy SpineDummy LeftUpLegDummy
    RightUpLegDummy RightUpLeg
    RightUpLeg RightLeg
    RightLeg RightFoot
    RightFoot RightToes
    SpineDummy Spine
    Spine Spine1
    Spine1 HEadDummy LeftShoulder1Dummy RightShoulderDummy
    HEadDummy HEad
    LeftShoulder1Dummy LeftShoulder1
    LeftShoulder1 LeftArm
    LeftArm LeftForeArm
    LeftForeArm LeftHand
    RightShoulderDummy RightShoulder
    RightShoulder RightArm
    RightArm RightForeArm
    RightForeArm RightHand
    LeftUpLegDummy LeftUpLeg
    LeftUpLeg LeftLeg
    LeftLeg LeftFoot
    LeftFoot LeftToes
  end

:SAMPLES-PER-SECOND 30
:FULLY-SPECIFIED
:DEGREES
512
root  4.16119 34.3839 35.3658 -170.002 -1.6409 -163.397
RightUpLeg  -26.6771 28.2322 4.94547
RightLeg  -82.4407 -15.8575 9.67488
RightFoot  18.5892 12.3225 -27.6882
RightToes  -1.27222e-014 -6.36111e-015 6.36111e-015
Spine  -18.2243 -21.9946 -12.7716
Spine1  -20.7924 -13.0384 65.9537
HEad  -13.9767 13.4347 -11.449
LeftShoulder1  6.36111e-015 -1.33558e-015 6.49777e-015
LeftArm  -30.5888 -20.9777 -9.18083
LeftForeArm  -77.4196 -43.6827 37.708
LeftHand  -3.80262 -10.6442 -18.4574
RightShoulder  -4.77083e-015 -6.36111e-015 -3.18055e-015
RightArm  -2.72831 2.61873 0.494961
RightForeArm  -46.3247 14.8509 -38.3154
RightHand  2.78132 -1.66614 -16.7597
LeftUpLeg  61.8966 29.4348 19.8827
LeftLeg  -19.8135 -9.36304 -0.78427
LeftFoot  -1.93487 -2.38752 8.68855
LeftToes  1.27222e-014 -5.20697e-012 1.80337e-011
513
root  5.25715 32.4353 34.6816 -171.893 -5.35991 -164.926
RightUpLeg  -30.6604 28.4136 -0.8521
RightLeg  -78.3146 -16.8436 9.24206
RightFoot  21.1035 11.1895 -25.7818
RightToes  -1.27222e-014 -6.36111e-015 6.36111e-015
Spine  -11.9831 -25.3245 -17.4516
Spine1  -22.7428 -12.2306 75.5538
HEad  -18.065 19.0589 -14.1694
LeftShoulder1  6.36111e-015 -1.33558e-015 6.49777e-015
LeftArm  -36.9726 -25.7441 -5.17522
LeftForeArm  -66.4022 -44.5421 33.2896
LeftHand  -3.73598 -10.2923 -17.8305
RightShoulder  -4.77083e-015 -6.36111e-015 -3.18055e-015
RightArm  -4.65144 4.22102 -2.57857
RightForeArm  -44.0657 13.3585 -34.8844
RightHand  2.99613 -2.25633 -16.9035
LeftUpLeg  67.0038 27.1326 15.9584
LeftLeg  -19.9817 -3.25786 -2.19963
LeftFoot  -18.7966 -1.89338 15.8567
LeftToes  1.27222e-014 -5.20697e-012 1.80337e-011
514
root  5.81128 31.0352 33.1044 -171.593 -6.79212 -165.252
RightUpLeg  -33.9224 25.5694 -3.82874
RightLeg  -69.5513 -17.8435 6.65559
RightFoot  24.45 4.64015 -16.2748
RightToes  -1.27222e-014 -6.36111e-015 6.36111e-015
Spine  -12.7597 -26.1013 -17.8682
Spine1  -20.4033 -12.5504 80.5491
HEad  -21.3095 22.856 -18.8175
LeftShoulder1  6.36111e-015 -1.33558e-015 6.49777e-015
LeftArm  -36.7723 -31.8741 -3.60476
LeftForeArm  -51.1178 -46.5697 28.8493
LeftHand  -3.3225 -8.45317 -14.1297
RightShoulder  -4.77083e-015 -6.36111e-015 -3.18055e-015
RightArm  -1.68016 2.79592 -4.07842
RightForeArm  -40.3333 12.5203 -31.8747
RightHand  2.03122 -0.722162 -13.6904
LeftUpLeg  69.5819 25.3774 12.9084
LeftLeg  -19.3581 -1.33498 -2.55809
LeftFoot  -24.2875 -0.755177 11.3197
LeftToes  1.27222e-014 -5.20697e-012 1.80337e-011
515
root  5.91026 30.1563 30.9241 -170.289 -7.24467 -164.493
RightUpLeg  -35.4055 21.06 -4.30608
RightLeg  -60.6215 -17.5779 3.33606
RightFoot  23.4777 -3.09086 -5.12025
RightToes  -1.27222e-014 -6.36111e-015 6.36111e-015
Spine  -18.1666 -24.762 -12.5817
Spine1  -16.7619 -14.5031 80.1833
HEad  -23.3725 25.5015 -23.7814
LeftShoulder1  6.36111e-015 -1.33558e-015 6.49777e-015
LeftArm  -29.4319 -39.9036 -5.26313
LeftForeArm  -30.8047 -49.842 21.7089
LeftHand  -2.4079 -5.32139 -10.5405
RightShoulder  -4.77083e-015 -6.36111e-015 -3.18055e-015
RightArm  5.65854 -1.71199 -5.12148
RightForeArm  -36.7671 9.67302 -27.1247
RightHand  1.36037 0.249839 -10.821
LeftUpLeg  69.3348 24.4743 13.9871
LeftLeg  -13.2585 -0.942487 -1.84607
LeftFoot  -17.7951 -0.351093 3.24519
LeftToes  1.27222e-014 -5.20697e-012 1.80337e-011
516
root  5.75625 29.8467 28.6735 -169.794 -8.06908 -164.466
RightUpLeg  -34.1153 17.5201 -4.44719
RightLeg  -54.1999 -16.831 1.13425
RightFoot  18.6502 -5.66272 0.594825
RightToes  -1.27222e-014 -6.36111e-015 6.36111e-015
Spine  -21.9077 -22.3535 -6.12072
Spine1  -14.0437 -16.7726 77.4327
HEad  -24.2546 26.7188 -26.6256
LeftShoulder1  6.36111e-015 -1.33558e-015 6.49777e-015
LeftArm  -14.1674 -49.9821 -12.6684
LeftForeArm  -6.40439 -48.8627 7.9658
LeftHand  -1.55307 -2.47449 -10.0533
RightShoulder  -4.77083e-015 -6.36111e-015 -3.18055e-015
RightArm  16.1229 -5.42752 -7.24493
RightForeArm  -32.7791 1.8585 -18.7793
RightHand  1.70663 -1.53219 -9.90397
LeftUpLeg  64.5012 24.4283 16.4254
LeftLeg  1.63696 3.6005 0.587084
LeftFoot  -3.39136 -0.509855 2.04936
LeftToes  1.27222e-014 -5.20697e-012 1.80337e-011
517
root  5.6084 29.7393 26.783 -170.219 -9.4468 -165.72
RightUpLeg  -31.2339 17.2406 -5.82371
RightLeg  -49.6632 -17.0119 0.602157
RightFoot  12.4884 -5.44441 3.40006
RightToes  -1.27222e-014 -6.36111e-015 6.36111e-015
Spine  -22.4729 -19.6958 -1.36051
Spine1  -11.1844 -17.8809 75.5278
HEad  -25.0431 25.9921 -27.6859
LeftShoulder1  6.36111e-015 -1.33558e-015 6.49777e-015
LeftArm  14.3262 -59.1258 -32.3102
LeftForeArm  5.6945 -35.6497 -1.44423
LeftHand  -1.28911 -1.23126 -11.5481
RightShoulder  -4.77083e-015 -6.36111e-015 -3.18055e-015
RightArm  29.3156 -4.87415 -8.67716
RightForeArm  -26.1945 -9.20223 -10.2512
RightHand  1.64185 -2.74971 -7.48235
LeftUpLeg  55.1264 24.274 16.0858
LeftLeg  23.0876 7.75153 7.19138
LeftFoot  6.07606 -0.283556 0.789439
LeftToes  1.27222e-014 -5.20697e-012 1.80337e-011
518
root  5.41612 29.6619 24.9436 -170.661 -10.2929 -167.801
RightUpLeg  -27.1894 19.4097 -8.13034
RightLeg  -47.2915 -17.7213 0.857527
RightFoot  6.80561 -5.71887 7.34063
RightToes  -1.27222e-014 -6.36111e-015 6.36111e-015
Spine  -22.9049 -16.5104 2.08277
Spine1  -7.49625 -18.0135 70.2823
HEad  -26.5911 23.4523 -28.4313
LeftShoulder1  6.36111e-015 -1.33558e-015 6.49777e-015
LeftArm  8.52173 -44.3852 -27.168
LeftForeArm  22.8141 -34.4191 -18.5932
LeftHand  -1.08859 -0.154471 -12.8427
RightShoulder  -4.77083e-015 -6.36111e-015 -3.18055e-015
RightArm  46.7376 -2.28728 -3.97968
RightForeArm  -18.3617 -19.1949 -4.95833
RightHand  0.186736 0.178562 -1.66029
LeftUpLeg  44.1666 24.5516 14.6772
LeftLeg  45.1799 5.0656 12.6828
LeftFoot  2.72578 1.42071 -4.39324
LeftToes  1.27222e-014 -5.20697e-012 1.80337e-011
519
root  4.91521 29.8614 22.8941 -170.963 -10.0411 -169.52
RightUpLeg  -21.6761 21.0568 -9.64586
RightLeg  -48.6902 -17.9427 1.25223
RightFoot  3.61862 -6.10051 10.3364
RightToes  -1.27222e-014 -6.36111e-015 6.36111e-015
Spine  -23.4827 -11.9316 5.87403
Spine1  -3.73468 -17.2804 60.2656
HEad  -28.7454 19.6941 -29.2087
LeftShoulder1  6.36111e-015 -1.33558e-015 6.49777e-015
LeftArm  6.29995 -25.9121 -17.1932
LeftForeArm  31.2171 -33.7043 -25.3095
LeftHand  -0.523917 1.68691 -12.0697
RightShoulder  -4.77083e-015 -6.36111e-015 -3.18055e-015
RightArm  52.7669 -6.92955 -18.3449
RightForeArm  -0.32625 -2.30317 7.26391
RightHand  -0.915206 4.9206 0.732952
LeftUpLeg  32.5664 25.7114 14.8771
LeftLeg  62.0026 0.320448 12.3821
LeftFoot  -6.92458 1.61573 -6.81192
LeftToes  1.27222e-014 -5.20697e-012 1.80337e-011
520
root  4.09217 30.2519 20.6289 -171.73 -9.82763 -170.675
RightUpLeg  -14.3753 21.2976 -10.4482
RightLeg  -52.273 -17.4516 1.37422
RightFoot  1.11777 -5.731 11.5528
RightToes  -1.27222e-014 -6.36111e-015 6.36111e-015
Spine  -22.7744 -7.6298 9.21481
Spine1  -0.927832 -15.7423 50.3755
HEad  -31.9429 15.7646 -29.0873
LeftShoulder1  6.36111e-015 -1.33558e-015 6.49777e-015
LeftArm  18.1871 -17.3951 -8.94176
LeftForeArm  26.458 -31.0712 -21.8362
LeftHand  0.140509 3.28809 -10.0166
RightShoulder  -4.77083e-015 -6.36111e-015 -3.18055e-015
RightArm  67.7054 -11.0664 -25.61
RightForeArm  4.00261 2.02268 10.5724
RightHand  -0.886468 4.47707 1.2534
LeftUpLeg  20.1105 27.0022 17.4148
LeftLeg  71.6324 -1.64471 12.2237
LeftFoot  -14.5898 1.38065 -8.12396
LeftToes  1.27222e-014 -5.20697e-012 1.80337e-011
521
root  3.01597 30.562 17.997 -173.102 -10.5408 -172.37
RightUpLeg  -4.53259 22.0613 -12.4793
RightLeg  -57.1478 -15.9229 0.506159
RightFoot  -2.43249 -5.87099 14.94
RightToes  -1.27222e-014 -6.36111e-015 6.36111e-015
Spine  -21.9695 -5.82548 8.93694
Spine1  0.102254 -14.0876 43.9827
HEad  -35.7313 12.6 -27.7823
LeftShoulder1  6.36111e-015 -1.33558e-015 6.49777e-015
LeftArm  33.315 -11.2126 0.590406
LeftForeArm  19.9431 -27.0132 -17.3778
LeftHand  0.301362 3.36218 -8.77264
RightShoulder  -4.77083e-015 -6.36111e-015 -3.18055e-015
RightArm  88.3539 -18.7589 -31.1544
RightForeArm  -3.67772 -4.76418 4.1983
RightHand  -0.621862 1.59261 3.07042
LeftUpLeg  7.21126 28.7887 20.5526
LeftLeg  73.4795 -1.41342 16.0193
LeftFoot  -18.3331 1.27987 -9.35218
LeftToes  1.27222e-014 -5.20697e-012 1.80337e-011
522
root  1.60999 30.8486 14.9686 -173.961 -12.5405 -174.724
RightUpLeg  6.74691 23.4728 -15.7744
RightLeg  -65.8869 -14.4647 -0.119593
RightFoot  -1.14003 -9.03871 20.4396
RightToes  -1.27222e-014 -6.36111e-015 6.36111e-015
Spine  -23.3072 -5.64907 5.26317
Spine1  -0.00103607 -12.8908 39.5624
HEad  -36.9931 9.96995 -25.8218
LeftShoulder1  6.36111e-015 -1.33558e-015 6.49777e-015
LeftArm  47.584 -5.48433 13.4533
LeftForeArm  12.1179 -19.7766 -11.7898
LeftHand  -0.0112961 2.06064 -7.9389
RightShoulder  -4.77083e-015 -6.36111e-015 -3.18055e-015
RightArm  109.669 -25.3281 -43.5288
RightForeArm  -9.84072 -11.4191 -0.745793
RightHand  -0.734993 1.63783 4.01048
LeftUpLeg  -5.61721 30.8668 22.2217
LeftLeg  67.6288 0.0276189 15.7819
LeftFoot  -19.6873 1.03039 -8.13649
LeftToes  1.27222e-014 -5.20697e-012 1.80337e-011
523
root  -0.25344 31.2977 11.5854 -173.897 -15.9935 -175.994
RightUpLeg  17.2846 22.6461 -18.543
RightLeg  -77.0337 -13.4751 0.143886
RightFoot  12.3021 -15.7082 19.9823
RightToes  -1.27222e-014 -6.36111e-015 6.36111e-015
Spine  -28.3057 -4.17012 1.64206
Spine1  -0.0689916 -11.3241 36.773
HEad  -34.1625 6.4938 -23.1035
LeftShoulder1  6.36111e-015 -1.33558e-015 6.49777e-015
LeftArm  60.5425 -3.46839 26.1437
LeftForeArm  4.59836 -8.15567 -6.38652
LeftHand  -0.221696 0.998382 -6.59555
RightShoulder  -4.77083e-015 -6.36111e-015 -3.18055e-015
RightArm  127.53 -22.3984 -60.1858
RightForeArm  -8.98484 -10.9309 -0.380716
RightHand  -0.893722 2.66613 4.16351
LeftUpLeg  -16.1154 33.1103 23.0163
LeftLeg  55.0007 -0.133421 8.3767
LeftFoot  -19.3015 1.05975 -8.16013
LeftToes  1.27222e-014 -5.20697e-012 1.80337e-011
